<svg width="720" height="360" viewBox="0 0 720 360" fill="none" xmlns="http://www.w3.org/2000/svg">
  <rect width="720" height="360" rx="28" fill="#F8FAFC"/>
  <rect x="38" y="38" width="644" height="284" rx="20" fill="white" stroke="#E2E8F0"/>
  <rect x="64" y="64" width="248" height="18" rx="9" fill="#0F172A"/>
  <rect x="64" y="95" width="174" height="12" rx="6" fill="#94A3B8"/>
  <rect x="64" y="132" width="294" height="156" rx="14" fill="#F1F5F9"/>
  <rect x="86" y="155" width="72" height="10" rx="5" fill="#0284C7"/>
  <rect x="86" y="175" width="248" height="8" rx="4" fill="#94A3B8"/>
  <rect x="86" y="191" width="220" height="8" rx="4" fill="#CBD5E1"/>
  <rect x="86" y="221" width="116" height="32" rx="10" fill="#F97316"/>
  <rect x="380" y="132" width="276" height="156" rx="14" fill="#EEF2FF"/>
  <rect x="402" y="155" width="76" height="10" rx="5" fill="#0EA5E9"/>
  <rect x="402" y="177" width="222" height="8" rx="4" fill="#94A3B8"/>
  <rect x="402" y="193" width="198" height="8" rx="4" fill="#CBD5E1"/>
  <rect x="402" y="219" width="230" height="52" rx="10" fill="white" stroke="#BFDBFE"/>
  <circle cx="429" cy="245" r="8" fill="#22C55E"/>
  <rect x="446" y="241" width="154" height="8" rx="4" fill="#64748B"/>
  <rect x="38" y="303" width="644" height="19" rx="9.5" fill="#F1F5F9"/>
</svg>
