<svg width="520" height="520" viewBox="0 0 520 520" fill="none" xmlns="http://www.w3.org/2000/svg">
  <rect width="520" height="520" rx="36" fill="#F8FAFC"/>
  <g transform="translate(0,-18)">
    <path d="M165 122L252 198L208 350L100 294L82 166L165 122Z" fill="url(#paint0_linear)"/>
    <path d="M355 122L268 198L312 350L420 294L438 166L355 122Z" fill="url(#paint1_linear)"/>
    <path d="M164 122L230 210L206 246L110 158L164 122Z" fill="#FBBF24"/>
    <path d="M356 122L290 210L314 246L410 158L356 122Z" fill="#F59E0B"/>
    <path d="M183 136L256 218L196 228L136 158L183 136Z" fill="#FF7A14"/>
    <path d="M337 136L264 218L324 228L384 158L337 136Z" fill="#FB7185"/>
    <circle cx="262" cy="342" r="92" fill="#CBD5E1"/>
    <path d="M262 286C291.823 286 316 310.177 316 340V358H208V340C208 310.177 232.177 286 262 286Z" fill="#0EA5E9"/>
    <circle cx="262" cy="250" r="44" fill="#F59E0B"/>
    <text x="260" y="438" text-anchor="middle" fill="#0F172A" font-family="Arial, sans-serif" font-size="52" font-weight="700">Online Courses</text>
    <text x="260" y="472" text-anchor="middle" fill="#475569" font-family="Arial, sans-serif" font-size="22" letter-spacing="3">LEARN ANYWHERE</text>
  </g>
  <defs>
    <linearGradient id="paint0_linear" x1="82" y1="122" x2="252" y2="350" gradientUnits="userSpaceOnUse">
      <stop stop-color="#EC4899"/>
      <stop offset="1" stop-color="#7C3AED"/>
    </linearGradient>
    <linearGradient id="paint1_linear" x1="438" y1="122" x2="268" y2="350" gradientUnits="userSpaceOnUse">
      <stop stop-color="#F97316"/>
      <stop offset="1" stop-color="#E11D48"/>
    </linearGradient>
  </defs>
</svg>
